<svg xmlns="http://www.w3.org/2000/svg" xmlns:xlink="http://www.w3.org/1999/xlink" width="396" zoomAndPan="magnify" viewBox="0 0 297 809.999993" height="1080" preserveAspectRatio="xMidYMid meet" version="1.0"><path fill="#dee2e6" d="M -0.421875 0 C 1.957031 5.90625 4.628906 11.671875 7.605469 17.300781 C 10.578125 22.929688 13.832031 28.390625 17.371094 33.683594 C 20.910156 38.976562 24.710938 44.070312 28.773438 48.972656 C 32.839844 53.871094 37.144531 58.550781 41.695312 63.003906 C 46.242188 67.457031 51.007812 71.667969 55.988281 75.628906 C 60.972656 79.59375 66.148438 83.289062 71.511719 86.714844 C 76.875 90.144531 82.402344 93.285156 88.09375 96.144531 C 93.785156 99 99.605469 101.558594 105.558594 103.8125 C 105.394531 54.550781 51.660156 1.324219 -0.421875 0 Z M 107.210938 722.71875 C 143.253906 677.753906 191.535156 651.140625 227.742188 668.003906 C 197.980469 727.347656 137.46875 748.507812 107.210938 722.71875 Z M 163.59375 635.4375 C 188.890625 585.84375 230.71875 550.46875 269.574219 559.726562 C 252.214844 622.875 198.148438 654.777344 163.59375 635.4375 Z M 200.296875 540.550781 C 215.175781 487.984375 249.898438 445.003906 289.082031 446.65625 C 284.289062 511.457031 237.992188 552.617188 200.296875 540.550781 Z M 216.832031 441.367188 C 221.128906 387.148438 246.261719 338.214844 285.777344 332.101562 C 294.207031 396.734375 256.015625 446.328125 217.492188 441.367188 Z M 214.351562 340.859375 C 208.234375 286.804688 223.277344 233.578125 260.644531 219.855469 C 281.808594 282.011719 254.363281 337.554688 215.011719 340.859375 Z M 192.527344 241.675781 C 175.992188 189.605469 179.628906 133.734375 213.523438 112.738281 C 247.085938 171.257812 231.050781 231.429688 193.1875 242.339844 Z M 151.6875 148.777344 C 124.574219 100.339844 115.808594 43.804688 144.742188 16.53125 C 189.882812 68.105469 186.738281 130.921875 151.6875 148.777344 Z M 128.042969 162.332031 C 92.664062 180.84375 47.195312 163.652344 16.441406 129.269531 C 45.046875 102.488281 100.433594 114.390625 128.042969 162.660156 Z M 167.230469 250.933594 C 128.871094 262.175781 87.867188 236.882812 65.546875 198.203125 C 99.109375 177.207031 150.199219 198.367188 167.230469 250.933594 Z M 187.898438 344.167969 C 148.214844 347.640625 113 315.074219 98.945312 273.582031 C 135.980469 259.53125 181.449219 290.277344 187.898438 344.167969 Z M 189.882812 439.21875 C 150.367188 434.921875 121.925781 396.074219 116.304688 352.929688 C 155.65625 347.144531 194.179688 385.164062 189.882812 439.21875 Z M 173.347656 533.277344 C 135.320312 521.210938 114.984375 477.402344 117.960938 434.09375 C 158.136719 435.417969 188.394531 480.710938 173.347656 533.277344 Z M 138.625 623.039062 C 103.742188 603.699219 92.828125 556.917969 104.070312 513.9375 C 143.253906 523.027344 164.253906 573.777344 139.289062 623.039062 Z M 85.554688 705.691406 C 55.296875 679.738281 54.800781 630.148438 74.476562 589.976562 C 111.179688 607.003906 121.597656 661.222656 86.214844 705.691406 Z M 2.882812 794.792969 C 9.160156 790.101562 15.320312 785.261719 21.367188 780.277344 C 27.414062 775.292969 33.339844 770.167969 39.144531 764.902344 C 44.949219 759.636719 50.625 754.238281 56.171875 748.707031 C 61.71875 743.171875 67.132812 737.507812 72.410156 731.71875 C 77.691406 725.929688 82.832031 720.015625 87.828125 713.980469 C 92.828125 707.949219 97.679688 701.796875 102.390625 695.535156 C 107.097656 689.269531 111.652344 682.898438 116.058594 676.417969 C 120.464844 669.9375 124.714844 663.359375 128.808594 656.675781 C 132.898438 649.996094 136.832031 643.222656 140.605469 636.351562 C 144.378906 629.484375 147.984375 622.53125 151.429688 615.492188 C 154.871094 608.453125 158.144531 601.339844 161.25 594.144531 C 164.355469 586.949219 167.289062 579.6875 170.050781 572.355469 C 172.808594 565.023438 175.394531 557.628906 177.804688 550.171875 C 180.21875 542.71875 182.449219 535.210938 184.503906 527.648438 C 186.558594 520.085938 188.433594 512.480469 190.125 504.832031 C 191.820312 497.179688 193.332031 489.496094 194.660156 481.773438 C 195.992188 474.050781 197.136719 466.304688 198.101562 458.527344 C 199.0625 450.75 199.839844 442.957031 200.433594 435.144531 C 201.023438 427.332031 201.433594 419.507812 201.65625 411.675781 C 201.875 403.84375 201.914062 396.011719 201.761719 388.179688 C 201.613281 380.34375 201.277344 372.519531 200.757812 364.703125 C 200.238281 356.882812 199.53125 349.082031 198.640625 341.296875 C 197.753906 333.511719 196.679688 325.753906 195.417969 318.019531 C 194.160156 310.285156 192.722656 302.585938 191.097656 294.921875 C 189.476562 287.257812 187.671875 279.632812 185.6875 272.054688 C 183.703125 264.476562 181.539062 256.945312 179.199219 249.46875 C 176.855469 241.992188 174.339844 234.574219 171.644531 227.214844 C 168.953125 219.859375 166.085938 212.566406 163.050781 205.34375 C 160.011719 198.125 156.800781 190.976562 153.425781 183.90625 C 150.046875 176.835938 146.503906 169.851562 142.796875 162.949219 C 139.085938 156.046875 135.21875 149.234375 131.1875 142.515625 C 127.152344 135.796875 122.964844 129.175781 118.621094 122.65625 C 123.136719 129.195312 127.496094 135.839844 131.695312 142.585938 C 135.898438 149.332031 139.933594 156.171875 143.8125 163.109375 C 147.6875 170.046875 151.398438 177.074219 154.9375 184.1875 C 158.480469 191.300781 161.851562 198.492188 165.054688 205.769531 C 168.253906 213.042969 171.28125 220.386719 174.132812 227.804688 C 176.984375 235.222656 179.660156 242.703125 182.15625 250.246094 C 184.652344 257.789062 186.96875 265.390625 189.105469 273.042969 C 191.242188 280.699219 193.195312 288.398438 194.964844 296.144531 C 196.738281 303.894531 198.324219 311.675781 199.722656 319.5 C 201.125 327.320312 202.339844 335.171875 203.367188 343.050781 C 204.394531 350.933594 205.234375 358.832031 205.890625 366.75 C 206.542969 374.671875 207.007812 382.601562 207.285156 390.542969 C 207.558594 398.484375 207.648438 406.429688 207.546875 414.375 C 207.445312 422.320312 207.15625 430.261719 206.679688 438.191406 C 206.203125 446.125 205.535156 454.042969 204.683594 461.941406 C 203.828125 469.84375 202.789062 477.71875 201.5625 485.570312 C 200.335938 493.421875 198.921875 501.238281 197.324219 509.023438 C 195.722656 516.808594 193.941406 524.546875 191.976562 532.25 C 190.011719 539.949219 187.863281 547.597656 185.53125 555.195312 C 183.203125 562.792969 180.695312 570.328125 178.007812 577.808594 C 175.320312 585.289062 172.457031 592.699219 169.417969 600.039062 C 166.378906 607.382812 163.167969 614.648438 159.785156 621.839844 C 156.398438 629.03125 152.847656 636.136719 149.125 643.15625 C 145.402344 650.179688 141.519531 657.109375 137.46875 663.945312 C 133.417969 670.785156 129.207031 677.519531 124.835938 684.160156 C 120.464844 690.796875 115.941406 697.324219 111.261719 703.75 C 106.578125 710.171875 101.75 716.480469 96.769531 722.671875 C 91.789062 728.867188 86.664062 734.9375 81.398438 740.886719 C 76.128906 746.835938 70.722656 752.660156 65.179688 758.351562 C 59.632812 764.046875 53.957031 769.605469 48.148438 775.03125 C 42.339844 780.453125 36.40625 785.738281 30.347656 790.878906 C 24.289062 796.023438 18.109375 801.019531 11.8125 805.867188 C 7.183594 809.503906 1.5625 809.835938 -0.753906 805.867188 C -3.066406 801.898438 -0.753906 797.601562 3.214844 794.128906 Z M -909.445312 0 C -911.824219 5.90625 -914.496094 11.671875 -917.472656 17.300781 C -920.445312 22.929688 -923.699219 28.390625 -927.238281 33.683594 C -930.777344 38.976562 -934.578125 44.070312 -938.640625 48.972656 C -942.707031 53.871094 -947.011719 58.550781 -951.5625 63.003906 C -956.109375 67.457031 -960.875 71.667969 -965.855469 75.628906 C -970.839844 79.59375 -976.015625 83.289062 -981.378906 86.714844 C -986.742188 90.144531 -992.269531 93.285156 -997.960938 96.144531 C -1003.652344 99 -1009.472656 101.558594 -1015.425781 103.8125 C -1015.261719 54.550781 -961.527344 1.324219 -909.445312 0 Z M -1137.609375 668.003906 C -1101.402344 651.472656 -1053.121094 678.417969 -1017.410156 722.71875 C -1047.335938 748.507812 -1107.847656 727.347656 -1137.609375 668.003906 Z M -1179.441406 559.726562 C -1140.585938 550.46875 -1098.757812 586.175781 -1073.460938 635.4375 C -1108.015625 654.777344 -1162.078125 622.875 -1179.441406 559.726562 Z M -1198.949219 446.328125 C -1159.105469 444.671875 -1125.042969 487.652344 -1110.164062 540.21875 C -1147.859375 552.617188 -1194.15625 511.457031 -1198.949219 446.328125 Z M -1196.304688 331.769531 C -1156.789062 337.886719 -1131.65625 386.816406 -1127.359375 441.035156 C -1165.882812 446.328125 -1204.074219 396.734375 -1196.304688 332.101562 Z M -1171.171875 219.855469 C -1133.808594 233.578125 -1118.761719 286.804688 -1124.878906 340.859375 C -1164.230469 337.554688 -1191.675781 282.011719 -1171.171875 219.855469 Z M -1124.050781 113.398438 C -1090.984375 134.394531 -1086.355469 190.265625 -1103.054688 242.339844 C -1140.917969 231.429688 -1156.953125 171.257812 -1124.050781 113.398438 Z M -1054.609375 16.53125 C -1025.675781 43.972656 -1034.441406 100.507812 -1061.554688 148.777344 C -1096.605469 130.921875 -1099.746094 68.105469 -1054.609375 16.53125 Z M -926.308594 129.765625 C -957.0625 163.984375 -1002.53125 181.175781 -1037.910156 162.828125 C -1010.300781 114.390625 -954.914062 102.488281 -926.308594 129.765625 Z M -975.910156 198.203125 C -998.230469 236.882812 -1039.234375 262.175781 -1077.59375 250.933594 C -1060.066406 198.367188 -1008.976562 177.207031 -975.414062 198.367188 Z M -1008.976562 273.582031 C -1023.03125 315.074219 -1058.578125 347.640625 -1097.929688 344.167969 C -1091.316406 290.277344 -1045.847656 259.53125 -1008.8125 273.582031 Z M -1026.667969 352.929688 C -1032.289062 396.074219 -1060.726562 435.582031 -1100.242188 439.21875 C -1104.046875 385.164062 -1065.523438 347.144531 -1026.503906 352.929688 Z M -1028.652344 433.929688 C -1025.675781 477.402344 -1045.1875 521.210938 -1084.042969 533.113281 C -1098.261719 480.710938 -1068.003906 435.417969 -1028.488281 433.929688 Z M -1014.765625 513.9375 C -1003.523438 556.253906 -1014.765625 603.699219 -1049.320312 623.039062 C -1074.121094 573.777344 -1053.121094 523.027344 -1014.597656 513.9375 Z M -985.167969 590.472656 C -965.496094 630.148438 -965.992188 679.738281 -996.246094 706.1875 C -1031.464844 661.222656 -1021.046875 607.003906 -985.003906 590.472656 Z M -913.578125 794.957031 C -909.113281 798.429688 -907.296875 803.71875 -909.609375 806.695312 C -911.925781 809.667969 -917.546875 809.503906 -922.175781 806.695312 C -928.488281 801.84375 -934.679688 796.84375 -940.75 791.699219 C -946.824219 786.554688 -952.769531 781.269531 -958.59375 775.84375 C -964.414062 770.414062 -970.101562 764.851562 -975.660156 759.152344 C -981.214844 753.457031 -986.636719 747.628906 -991.914062 741.671875 C -997.195312 735.71875 -1002.332031 729.640625 -1007.320312 723.441406 C -1012.3125 717.242188 -1017.152344 710.925781 -1021.84375 704.496094 C -1026.535156 698.066406 -1031.070312 691.53125 -1035.449219 684.886719 C -1039.828125 678.238281 -1044.046875 671.492188 -1048.105469 664.648438 C -1052.167969 657.800781 -1056.0625 650.863281 -1059.789062 643.832031 C -1063.519531 636.800781 -1067.078125 629.6875 -1070.46875 622.488281 C -1073.859375 615.285156 -1077.078125 608.011719 -1080.121094 600.65625 C -1083.167969 593.304688 -1086.035156 585.882812 -1088.726562 578.394531 C -1091.417969 570.902344 -1093.933594 563.355469 -1096.265625 555.746094 C -1098.597656 548.136719 -1100.75 540.476562 -1102.71875 532.765625 C -1104.6875 525.054688 -1106.46875 517.300781 -1108.070312 509.507812 C -1109.671875 501.710938 -1111.085938 493.878906 -1112.3125 486.015625 C -1113.539062 478.15625 -1114.582031 470.265625 -1115.433594 462.355469 C -1116.285156 454.441406 -1116.949219 446.511719 -1117.425781 438.570312 C -1117.902344 430.625 -1118.1875 422.675781 -1118.285156 414.714844 C -1118.382812 406.757812 -1118.292969 398.804688 -1118.011719 390.851562 C -1117.730469 382.894531 -1117.261719 374.953125 -1116.601562 367.023438 C -1115.945312 359.09375 -1115.097656 351.179688 -1114.0625 343.289062 C -1113.03125 335.398438 -1111.808594 327.539062 -1110.398438 319.703125 C -1108.992188 311.871094 -1107.398438 304.078125 -1105.621094 296.320312 C -1103.839844 288.5625 -1101.878906 280.851562 -1099.734375 273.1875 C -1097.585938 265.527344 -1095.261719 257.917969 -1092.753906 250.363281 C -1090.246094 242.8125 -1087.558594 235.320312 -1084.695312 227.894531 C -1081.832031 220.46875 -1078.796875 213.117188 -1075.582031 205.835938 C -1072.371094 198.554688 -1068.984375 191.355469 -1065.429688 184.234375 C -1061.875 177.113281 -1058.152344 170.082031 -1054.261719 163.136719 C -1050.371094 156.195312 -1046.320312 149.347656 -1042.105469 142.597656 C -1037.886719 135.847656 -1033.515625 129.199219 -1028.984375 122.65625 C -1033.328125 129.175781 -1037.515625 135.796875 -1041.550781 142.515625 C -1045.582031 149.234375 -1049.449219 156.046875 -1053.160156 162.949219 C -1056.867188 169.851562 -1060.410156 176.835938 -1063.789062 183.90625 C -1067.164062 190.976562 -1070.375 198.125 -1073.414062 205.34375 C -1076.449219 212.566406 -1079.316406 219.859375 -1082.007812 227.214844 C -1084.703125 234.574219 -1087.21875 241.992188 -1089.5625 249.46875 C -1091.902344 256.945312 -1094.066406 264.476562 -1096.050781 272.054688 C -1098.035156 279.632812 -1099.839844 287.257812 -1101.460938 294.921875 C -1103.085938 302.585938 -1104.523438 310.285156 -1105.785156 318.019531 C -1107.042969 325.753906 -1108.117188 333.511719 -1109.003906 341.296875 C -1109.894531 349.082031 -1110.601562 356.882812 -1111.121094 364.703125 C -1111.640625 372.519531 -1111.976562 380.34375 -1112.125 388.179688 C -1112.277344 396.011719 -1112.238281 403.84375 -1112.019531 411.675781 C -1111.796875 419.507812 -1111.386719 427.332031 -1110.796875 435.144531 C -1110.203125 442.957031 -1109.425781 450.75 -1108.464844 458.527344 C -1107.5 466.304688 -1106.355469 474.050781 -1105.027344 481.773438 C -1103.695312 489.496094 -1102.183594 497.179688 -1100.488281 504.832031 C -1098.796875 512.480469 -1096.921875 520.085938 -1094.867188 527.648438 C -1092.8125 535.210938 -1090.582031 542.71875 -1088.171875 550.171875 C -1085.757812 557.628906 -1083.175781 565.023438 -1080.414062 572.355469 C -1077.652344 579.6875 -1074.71875 586.953125 -1071.613281 594.144531 C -1068.507812 601.339844 -1065.234375 608.457031 -1061.792969 615.492188 C -1058.347656 622.53125 -1054.742188 629.484375 -1050.96875 636.351562 C -1047.195312 643.222656 -1043.265625 649.996094 -1039.171875 656.675781 C -1035.078125 663.359375 -1030.828125 669.9375 -1026.421875 676.417969 C -1022.015625 682.898438 -1017.460938 689.269531 -1012.753906 695.535156 C -1008.046875 701.800781 -1003.191406 707.949219 -998.191406 713.980469 C -993.195312 720.015625 -988.054688 725.929688 -982.773438 731.71875 C -977.496094 737.507812 -972.082031 743.171875 -966.535156 748.707031 C -960.988281 754.238281 -955.3125 759.636719 -949.507812 764.902344 C -943.703125 770.167969 -937.777344 775.292969 -931.730469 780.277344 C -925.683594 785.261719 -919.523438 790.101562 -913.246094 794.792969 Z M -913.578125 794.957031 " fill-opacity="1" fill-rule="nonzero"/><path stroke-linecap="butt" transform="matrix(0.615628, 0.428371, -0.428371, 0.615628, 117.169529, 214.064995)" fill="none" stroke-linejoin="miter" d="M 0.000162224 2.000901 L 50.849069 1.999324 " stroke="#dee2e6" stroke-width="4" stroke-opacity="1" stroke-miterlimit="4"/></svg>
