<svg xmlns="http://www.w3.org/2000/svg" xmlns:xlink="http://www.w3.org/1999/xlink" width="396" zoomAndPan="magnify" viewBox="0 0 297 809.999993" height="1080" preserveAspectRatio="xMidYMid meet" version="1.0"><path fill="#dee2e6" d="M 297.363281 0 C 294.984375 5.90625 292.3125 11.671875 289.335938 17.300781 C 286.363281 22.929688 283.109375 28.390625 279.570312 33.683594 C 276.03125 38.976562 272.230469 44.070312 268.167969 48.972656 C 264.101562 53.871094 259.796875 58.550781 255.246094 63.003906 C 250.699219 67.457031 245.933594 71.667969 240.953125 75.628906 C 235.96875 79.59375 230.792969 83.289062 225.429688 86.714844 C 220.066406 90.144531 214.539062 93.285156 208.847656 96.144531 C 203.15625 99 197.335938 101.558594 191.382812 103.8125 C 191.546875 54.550781 245.28125 1.324219 297.363281 0 Z M 189.730469 722.71875 C 153.6875 677.753906 105.40625 651.140625 69.199219 668.003906 C 98.960938 727.347656 159.472656 748.507812 189.730469 722.71875 Z M 133.347656 635.4375 C 108.050781 585.84375 66.222656 550.46875 27.367188 559.726562 C 44.726562 622.875 98.792969 654.777344 133.347656 635.4375 Z M 96.644531 540.550781 C 81.765625 487.984375 47.042969 445.003906 7.859375 446.65625 C 12.652344 511.457031 58.949219 552.617188 96.644531 540.550781 Z M 80.109375 441.367188 C 75.8125 387.148438 50.679688 338.214844 11.164062 332.101562 C 2.734375 396.734375 40.925781 446.328125 79.449219 441.367188 Z M 82.589844 340.859375 C 88.707031 286.804688 73.664062 233.578125 36.296875 219.855469 C 15.132812 282.011719 42.578125 337.554688 81.929688 340.859375 Z M 104.414062 241.675781 C 120.949219 189.605469 117.3125 133.734375 83.417969 112.738281 C 49.855469 171.257812 65.890625 231.429688 103.753906 242.339844 Z M 145.253906 148.777344 C 172.367188 100.339844 181.132812 43.804688 152.199219 16.53125 C 107.058594 68.105469 110.203125 130.921875 145.253906 148.777344 Z M 168.898438 162.332031 C 204.277344 180.84375 249.746094 163.652344 280.5 129.269531 C 251.894531 102.488281 196.507812 114.390625 168.898438 162.660156 Z M 129.710938 250.933594 C 168.070312 262.175781 209.074219 236.882812 231.394531 198.203125 C 197.832031 177.207031 146.742188 198.367188 129.710938 250.933594 Z M 109.042969 344.167969 C 148.726562 347.640625 183.941406 315.074219 197.996094 273.582031 C 160.960938 259.53125 115.492188 290.277344 109.042969 344.167969 Z M 107.058594 439.21875 C 146.574219 434.921875 175.015625 396.074219 180.636719 352.929688 C 141.285156 347.144531 102.761719 385.164062 107.058594 439.21875 Z M 123.59375 533.277344 C 161.621094 521.210938 181.957031 477.402344 178.980469 434.09375 C 138.804688 435.417969 108.546875 480.710938 123.59375 533.277344 Z M 158.316406 623.039062 C 193.199219 603.699219 204.113281 556.917969 192.871094 513.9375 C 153.6875 523.027344 132.6875 573.777344 157.652344 623.039062 Z M 211.386719 705.691406 C 241.644531 679.738281 242.140625 630.148438 222.464844 589.976562 C 185.761719 607.003906 175.34375 661.222656 210.726562 705.691406 Z M 294.058594 794.792969 C 287.78125 790.101562 281.621094 785.261719 275.574219 780.277344 C 269.527344 775.292969 263.601562 770.167969 257.796875 764.902344 C 251.992188 759.636719 246.316406 754.238281 240.769531 748.707031 C 235.222656 743.171875 229.808594 737.507812 224.53125 731.71875 C 219.25 725.929688 214.109375 720.015625 209.113281 713.980469 C 204.113281 707.949219 199.261719 701.796875 194.550781 695.535156 C 189.84375 689.269531 185.289062 682.898438 180.882812 676.417969 C 176.476562 669.9375 172.226562 663.359375 168.132812 656.675781 C 164.042969 649.996094 160.109375 643.222656 156.335938 636.351562 C 152.5625 629.484375 148.957031 622.53125 145.511719 615.492188 C 142.070312 608.453125 138.796875 601.339844 135.691406 594.144531 C 132.585938 586.949219 129.652344 579.6875 126.890625 572.355469 C 124.132812 565.023438 121.546875 557.628906 119.136719 550.171875 C 116.722656 542.71875 114.492188 535.210938 112.4375 527.648438 C 110.382812 520.085938 108.507812 512.480469 106.816406 504.832031 C 105.121094 497.179688 103.609375 489.496094 102.28125 481.773438 C 100.949219 474.050781 99.804688 466.304688 98.839844 458.527344 C 97.878906 450.75 97.101562 442.957031 96.507812 435.144531 C 95.917969 427.332031 95.507812 419.507812 95.285156 411.675781 C 95.066406 403.84375 95.027344 396.011719 95.179688 388.179688 C 95.328125 380.34375 95.664062 372.519531 96.183594 364.703125 C 96.703125 356.882812 97.410156 349.082031 98.300781 341.296875 C 99.1875 333.511719 100.261719 325.753906 101.523438 318.019531 C 102.78125 310.285156 104.21875 302.585938 105.84375 294.921875 C 107.464844 287.257812 109.269531 279.632812 111.253906 272.054688 C 113.238281 264.476562 115.402344 256.945312 117.742188 249.46875 C 120.085938 241.992188 122.601562 234.574219 125.296875 227.214844 C 127.988281 219.859375 130.855469 212.566406 133.890625 205.34375 C 136.929688 198.125 140.140625 190.976562 143.515625 183.90625 C 146.894531 176.835938 150.4375 169.851562 154.144531 162.949219 C 157.855469 156.046875 161.722656 149.234375 165.753906 142.515625 C 169.789062 135.796875 173.976562 129.175781 178.320312 122.65625 C 173.804688 129.195312 169.445312 135.839844 165.246094 142.585938 C 161.042969 149.332031 157.007812 156.171875 153.128906 163.109375 C 149.253906 170.046875 145.542969 177.074219 142.003906 184.1875 C 138.460938 191.300781 135.089844 198.492188 131.886719 205.769531 C 128.6875 213.042969 125.660156 220.386719 122.808594 227.804688 C 119.957031 235.222656 117.28125 242.703125 114.785156 250.246094 C 112.289062 257.789062 109.972656 265.390625 107.835938 273.042969 C 105.699219 280.699219 103.746094 288.398438 101.976562 296.144531 C 100.203125 303.894531 98.617188 311.675781 97.21875 319.5 C 95.816406 327.320312 94.601562 335.171875 93.574219 343.050781 C 92.546875 350.933594 91.707031 358.832031 91.050781 366.75 C 90.398438 374.671875 89.933594 382.601562 89.65625 390.542969 C 89.382812 398.484375 89.292969 406.429688 89.394531 414.375 C 89.496094 422.320312 89.785156 430.261719 90.261719 438.191406 C 90.738281 446.125 91.40625 454.042969 92.257812 461.941406 C 93.113281 469.84375 94.152344 477.71875 95.378906 485.570312 C 96.605469 493.421875 98.019531 501.238281 99.617188 509.023438 C 101.21875 516.808594 103 524.546875 104.964844 532.25 C 106.929688 539.949219 109.078125 547.597656 111.410156 555.195312 C 113.738281 562.792969 116.246094 570.328125 118.933594 577.808594 C 121.621094 585.289062 124.484375 592.699219 127.523438 600.039062 C 130.5625 607.382812 133.773438 614.648438 137.15625 621.839844 C 140.542969 629.03125 144.09375 636.136719 147.816406 643.15625 C 151.539062 650.179688 155.421875 657.109375 159.472656 663.945312 C 163.523438 670.785156 167.734375 677.519531 172.105469 684.160156 C 176.476562 690.796875 181 697.324219 185.679688 703.75 C 190.363281 710.171875 195.191406 716.480469 200.171875 722.671875 C 205.152344 728.867188 210.277344 734.9375 215.542969 740.886719 C 220.8125 746.835938 226.21875 752.660156 231.761719 758.351562 C 237.308594 764.046875 242.984375 769.605469 248.792969 775.03125 C 254.601562 780.453125 260.535156 785.738281 266.59375 790.878906 C 272.652344 796.023438 278.832031 801.019531 285.128906 805.867188 C 289.757812 809.503906 295.378906 809.835938 297.695312 805.867188 C 300.007812 801.898438 297.695312 797.601562 293.726562 794.128906 Z M 1206.386719 0 C 1208.765625 5.90625 1211.4375 11.671875 1214.414062 17.300781 C 1217.386719 22.929688 1220.640625 28.390625 1224.179688 33.683594 C 1227.71875 38.976562 1231.519531 44.070312 1235.582031 48.972656 C 1239.648438 53.871094 1243.953125 58.550781 1248.503906 63.003906 C 1253.050781 67.457031 1257.816406 71.667969 1262.796875 75.628906 C 1267.78125 79.59375 1272.957031 83.289062 1278.320312 86.714844 C 1283.683594 90.144531 1289.210938 93.285156 1294.902344 96.144531 C 1300.59375 99 1306.414062 101.558594 1312.367188 103.8125 C 1312.203125 54.550781 1258.46875 1.324219 1206.386719 0 Z M 1434.550781 668.003906 C 1398.34375 651.472656 1350.0625 678.417969 1314.351562 722.71875 C 1344.277344 748.507812 1404.789062 727.347656 1434.550781 668.003906 Z M 1476.382812 559.726562 C 1437.527344 550.46875 1395.699219 586.175781 1370.402344 635.4375 C 1404.957031 654.777344 1459.019531 622.875 1476.382812 559.726562 Z M 1495.890625 446.328125 C 1456.046875 444.671875 1421.984375 487.652344 1407.105469 540.21875 C 1444.800781 552.617188 1491.097656 511.457031 1495.890625 446.328125 Z M 1493.246094 331.769531 C 1453.730469 337.886719 1428.597656 386.816406 1424.300781 441.035156 C 1462.824219 446.328125 1501.015625 396.734375 1493.246094 332.101562 Z M 1468.113281 219.855469 C 1430.75 233.578125 1415.703125 286.804688 1421.820312 340.859375 C 1461.171875 337.554688 1488.617188 282.011719 1468.113281 219.855469 Z M 1420.992188 113.398438 C 1387.925781 134.394531 1383.296875 190.265625 1399.996094 242.339844 C 1437.859375 231.429688 1453.894531 171.257812 1420.992188 113.398438 Z M 1351.550781 16.53125 C 1322.617188 43.972656 1331.382812 100.507812 1358.496094 148.777344 C 1393.546875 130.921875 1396.6875 68.105469 1351.550781 16.53125 Z M 1223.25 129.765625 C 1254.003906 163.984375 1299.472656 181.175781 1334.851562 162.828125 C 1307.242188 114.390625 1251.855469 102.488281 1223.25 129.765625 Z M 1272.851562 198.203125 C 1295.171875 236.882812 1336.175781 262.175781 1374.535156 250.933594 C 1357.007812 198.367188 1305.917969 177.207031 1272.355469 198.367188 Z M 1305.917969 273.582031 C 1319.972656 315.074219 1355.519531 347.640625 1394.871094 344.167969 C 1388.257812 290.277344 1342.789062 259.53125 1305.753906 273.582031 Z M 1323.609375 352.929688 C 1329.230469 396.074219 1357.667969 435.582031 1397.183594 439.21875 C 1400.988281 385.164062 1362.464844 347.144531 1323.445312 352.929688 Z M 1325.59375 433.929688 C 1322.617188 477.402344 1342.128906 521.210938 1380.980469 533.113281 C 1395.203125 480.710938 1364.945312 435.417969 1325.429688 433.929688 Z M 1311.707031 513.9375 C 1300.464844 556.253906 1311.707031 603.699219 1346.261719 623.039062 C 1371.0625 573.777344 1350.0625 523.027344 1311.539062 513.9375 Z M 1282.109375 590.472656 C 1262.4375 630.148438 1262.933594 679.738281 1293.1875 706.1875 C 1328.40625 661.222656 1317.988281 607.003906 1281.945312 590.472656 Z M 1210.519531 794.957031 C 1206.054688 798.429688 1204.238281 803.71875 1206.550781 806.695312 C 1208.867188 809.667969 1214.488281 809.503906 1219.117188 806.695312 C 1225.429688 801.84375 1231.621094 796.84375 1237.691406 791.699219 C 1243.765625 786.554688 1249.710938 781.269531 1255.535156 775.84375 C 1261.355469 770.414062 1267.042969 764.851562 1272.601562 759.152344 C 1278.15625 753.457031 1283.578125 747.628906 1288.855469 741.671875 C 1294.136719 735.71875 1299.273438 729.640625 1304.261719 723.441406 C 1309.253906 717.242188 1314.09375 710.925781 1318.785156 704.496094 C 1323.476562 698.066406 1328.011719 691.53125 1332.390625 684.886719 C 1336.769531 678.238281 1340.988281 671.492188 1345.046875 664.648438 C 1349.109375 657.800781 1353 650.863281 1356.730469 643.832031 C 1360.460938 636.800781 1364.019531 629.6875 1367.410156 622.488281 C 1370.800781 615.285156 1374.019531 608.011719 1377.0625 600.65625 C 1380.109375 593.304688 1382.976562 585.882812 1385.667969 578.394531 C 1388.359375 570.902344 1390.875 563.355469 1393.207031 555.746094 C 1395.539062 548.136719 1397.691406 540.476562 1399.660156 532.765625 C 1401.628906 525.054688 1403.410156 517.300781 1405.011719 509.507812 C 1406.613281 501.710938 1408.027344 493.878906 1409.253906 486.015625 C 1410.480469 478.15625 1411.523438 470.265625 1412.375 462.355469 C 1413.226562 454.441406 1413.890625 446.511719 1414.367188 438.570312 C 1414.84375 430.625 1415.128906 422.675781 1415.226562 414.714844 C 1415.324219 406.757812 1415.234375 398.804688 1414.953125 390.851562 C 1414.671875 382.894531 1414.203125 374.953125 1413.542969 367.023438 C 1412.886719 359.09375 1412.039062 351.179688 1411.003906 343.289062 C 1409.972656 335.398438 1408.75 327.539062 1407.339844 319.703125 C 1405.933594 311.871094 1404.339844 304.078125 1402.5625 296.320312 C 1400.78125 288.5625 1398.820312 280.851562 1396.675781 273.1875 C 1394.527344 265.527344 1392.203125 257.917969 1389.695312 250.363281 C 1387.1875 242.8125 1384.5 235.320312 1381.636719 227.894531 C 1378.773438 220.46875 1375.738281 213.117188 1372.523438 205.835938 C 1369.3125 198.554688 1365.925781 191.355469 1362.371094 184.234375 C 1358.816406 177.113281 1355.09375 170.082031 1351.203125 163.136719 C 1347.3125 156.195312 1343.261719 149.347656 1339.046875 142.597656 C 1334.828125 135.847656 1330.457031 129.199219 1325.925781 122.65625 C 1330.269531 129.175781 1334.457031 135.796875 1338.492188 142.515625 C 1342.523438 149.234375 1346.390625 156.046875 1350.101562 162.949219 C 1353.808594 169.851562 1357.351562 176.835938 1360.730469 183.90625 C 1364.105469 190.976562 1367.316406 198.125 1370.355469 205.34375 C 1373.390625 212.566406 1376.257812 219.859375 1378.949219 227.214844 C 1381.644531 234.574219 1384.160156 241.992188 1386.503906 249.46875 C 1388.84375 256.945312 1391.007812 264.476562 1392.992188 272.054688 C 1394.976562 279.632812 1396.78125 287.257812 1398.402344 294.921875 C 1400.027344 302.585938 1401.464844 310.285156 1402.726562 318.019531 C 1403.984375 325.753906 1405.058594 333.511719 1405.945312 341.296875 C 1406.835938 349.082031 1407.542969 356.882812 1408.0625 364.703125 C 1408.582031 372.519531 1408.917969 380.34375 1409.066406 388.179688 C 1409.21875 396.011719 1409.179688 403.84375 1408.960938 411.675781 C 1408.738281 419.507812 1408.328125 427.332031 1407.738281 435.144531 C 1407.144531 442.957031 1406.367188 450.75 1405.40625 458.527344 C 1404.441406 466.304688 1403.296875 474.050781 1401.96875 481.773438 C 1400.636719 489.496094 1399.125 497.179688 1397.429688 504.832031 C 1395.738281 512.480469 1393.863281 520.085938 1391.808594 527.648438 C 1389.753906 535.210938 1387.523438 542.71875 1385.113281 550.171875 C 1382.699219 557.628906 1380.117188 565.023438 1377.355469 572.355469 C 1374.59375 579.6875 1371.660156 586.953125 1368.554688 594.144531 C 1365.449219 601.339844 1362.175781 608.457031 1358.734375 615.492188 C 1355.289062 622.53125 1351.683594 629.484375 1347.910156 636.351562 C 1344.136719 643.222656 1340.207031 649.996094 1336.113281 656.675781 C 1332.019531 663.359375 1327.769531 669.9375 1323.363281 676.417969 C 1318.957031 682.898438 1314.402344 689.269531 1309.695312 695.535156 C 1304.984375 701.800781 1300.132812 707.949219 1295.132812 713.980469 C 1290.136719 720.015625 1284.996094 725.929688 1279.714844 731.71875 C 1274.4375 737.507812 1269.023438 743.171875 1263.476562 748.707031 C 1257.929688 754.238281 1252.253906 759.636719 1246.449219 764.902344 C 1240.644531 770.167969 1234.71875 775.292969 1228.671875 780.277344 C 1222.625 785.261719 1216.464844 790.101562 1210.1875 794.792969 Z M 1210.519531 794.957031 " fill-opacity="1" fill-rule="nonzero"/><path stroke-linecap="butt" transform="matrix(0.615628, 0.428371, -0.428371, 0.615628, 30.556296, 284.254254)" fill="none" stroke-linejoin="miter" d="M -0.00123031 1.999013 L 50.850651 2.001711 " stroke="#dee2e6" stroke-width="4" stroke-opacity="1" stroke-miterlimit="4"/></svg>
